<svg xmlns="http://www.w3.org/2000/svg" width="92.35" height="57.581" viewBox="0 0 92.35 57.581">
  <path id="code" d="M32.431,10.15a3.636,3.636,0,0,0,0-5.1,3.523,3.523,0,0,0-5.029,0L2.542,30.242a3.632,3.632,0,0,0,0,5.1L27.4,60.525a3.523,3.523,0,0,0,5.029,0,3.636,3.636,0,0,0,0-5.1L10.079,32.79Zm30.486,0a3.636,3.636,0,0,1,0-5.1,3.523,3.523,0,0,1,5.029,0l24.86,25.187a3.632,3.632,0,0,1,0,5.1L67.946,60.525a3.523,3.523,0,0,1-5.029,0,3.636,3.636,0,0,1,0-5.1L85.27,32.79Z" transform="translate(-1.499 -3.999)" fill="#34c5b1"/>
</svg>
