<svg xmlns="http://www.w3.org/2000/svg" width="131.485" height="102.671" viewBox="0 0 131.485 102.671">
  <g id="Group_9" data-name="Group 9" transform="translate(-593.825 -2249)">
    <path id="brush" d="M59.6.424a1.685,1.685,0,0,1,.5,2.067C54.27,14.631,42.013,31.408,33.041,40.15a23.4,23.4,0,0,1-9.053,5.429,13.776,13.776,0,0,1-.61,3.072,8.82,8.82,0,0,1-6.516,6.158,33.324,33.324,0,0,1-11.742.467A14.872,14.872,0,0,1,2.976,54.8,5.42,5.42,0,0,1,1.2,53.925,2.539,2.539,0,0,1,.42,52.905a2.053,2.053,0,0,1,.015-1.568,3.328,3.328,0,0,1,1.759-1.6A7.794,7.794,0,0,0,5.5,46.814c.362-.51.7-1.051,1.095-1.671l.446-.7c.576-.9,1.244-1.911,2.083-3a7.692,7.692,0,0,1,6.661-3.171,9,9,0,0,1,1.328.17c.237-.609.542-1.345.908-2.152a30.5,30.5,0,0,1,4.528-7.323C30.851,19.516,46.125,7,57.329.283A2.026,2.026,0,0,1,59.6.424ZM17.182,42.16a5,5,0,0,0-1.6-.354,3.778,3.778,0,0,0-3.353,1.7c-.752.973-1.354,1.883-1.907,2.75l-.4.626c-.4.641-.813,1.281-1.221,1.869a12.336,12.336,0,0,1-2.9,3.047,29.255,29.255,0,0,0,10.136-.425,5.145,5.145,0,0,0,3.788-3.752,10.326,10.326,0,0,0,.481-2.654l-3.025-2.8Zm5.493.092a18.514,18.514,0,0,0,1.747-.648,19.37,19.37,0,0,0,5.856-3.893C37.527,30.647,47.11,18,53.366,7.163,43.486,13.984,32.133,23.657,25.51,31.2a27.225,27.225,0,0,0-3.975,6.463c-.462,1.019-.816,1.911-1.049,2.548v0l2.194,2.035ZM3.7,53.012l.027-.018a.121.121,0,0,1-.027.014Zm13.665-10.77.008,0h-.008Z" transform="translate(725.513 2299.099) rotate(138)" fill="#34c5b1"/>
    <path id="scale-ruler" d="M54.282.49,72.084,18.3a1.737,1.737,0,0,1,.207.26,1.666,1.666,0,0,1,.29.945,1.684,1.684,0,0,1-.5,1.182l-51.4,51.4a1.772,1.772,0,0,1-.319.242,1.637,1.637,0,0,1-.88.254,1.713,1.713,0,0,1-1.182-.5L.5,54.274a1.708,1.708,0,0,1,0-2.4L51.9.466a1.7,1.7,0,0,1,1.182-.5,1.666,1.666,0,0,1,1.182.5ZM22.022,66.3l-4.674-4.674,2.245-2.245,4.674,4.674,2.511-2.511-8.461-8.473,2.245-2.245L29.035,59.3l2.511-2.505-4.674-4.679,2.245-2.245,4.674,4.674L36.3,52.035l-8.49-8.479,2.245-2.245,8.479,8.479,2.511-2.535-4.674-4.674,2.245-2.245,4.674,4.674L45.8,42.528l-8.479-8.485L39.57,31.8l8.479,8.479,2.505-2.511L45.88,33.075l2.245-2.245L52.8,35.5l2.511-2.511-8.473-8.455,2.245-2.245,8.473,8.473L68.816,19.486,53.082,3.775,3.788,53.069,19.5,68.8,22,66.3ZM57.9,16.862A2.181,2.181,0,1,0,54.181,18.4l.047.053a2.192,2.192,0,0,0,3.037-.053l.047-.047A2.174,2.174,0,0,0,57.9,16.862Zm1.01-3.191a4.508,4.508,0,0,1,.071,6.31l-.071.077a4.514,4.514,0,0,1-6.328.065l-.053-.047A4.514,4.514,0,1,1,58.92,13.7Z" transform="translate(593.845 2300.343) rotate(-45)" fill="#34c5b1"/>
  </g>
</svg>
