<svg xmlns="http://www.w3.org/2000/svg" width="60" height="64.633" viewBox="0 0 60 64.633">
  <path id="funnel" d="M1.5,3.308A2.308,2.308,0,0,1,3.808,1H59.192A2.308,2.308,0,0,1,61.5,3.308v9.233a2.308,2.308,0,0,1-.59,1.542L40.731,36.512v22.2A2.308,2.308,0,0,1,39.152,60.9L25.306,65.514a2.308,2.308,0,0,1-3.037-2.188V36.512L2.091,14.084A2.309,2.309,0,0,1,1.5,12.542ZM6.115,5.617v6.039L26.294,34.084a2.309,2.309,0,0,1,.591,1.542v24.5l9.231-3.075V35.626a2.308,2.308,0,0,1,.59-1.542L56.885,11.655V5.617Z" transform="translate(-1.5 -1)" fill="#34c5b1"/>
</svg>
